<svg width="365" height="240" viewBox="0 0 365 240" fill="none" xmlns="http://www.w3.org/2000/svg">
<path d="M120.524 238.852C57.0841 247.376 0.550987 198.317 0.0534668 134.309L0.00305346 127.823C-0.685218 39.2743 115.132 -25.4831 196.35 9.79998C227.833 23.4766 251.902 29.7473 271.154 31.2574C346.831 37.1937 384.008 57.2877 355.08 127.47L344.956 152.032C329.654 189.156 295.724 215.31 255.927 220.658L120.524 238.852Z" fill="#DBE2EF"/>
<path d="M186.356 77.5696C186.356 77.5696 191.934 84.0032 193.329 84.1778C194.723 84.3523 188.797 91.8292 188.797 91.8292C188.797 91.8292 185.485 86.2645 183.219 85.7429C180.953 85.2212 186.356 77.5696 186.356 77.5696Z" fill="#ED9DA0"/>
<path d="M180.119 111.744C180.119 111.744 169.055 113.488 170.415 111.287C171.775 109.086 179.015 106.887 180.342 107.347C181.67 107.806 180.119 111.744 180.119 111.744Z" fill="#ED9DA0"/>
<path d="M192.806 87.1339C192.806 87.1339 185.66 89.0467 188.972 95.1332C188.972 95.1332 194.375 105.741 192.109 106.437C189.843 107.132 179.385 106.784 179.385 106.784C179.385 106.784 176.945 112.697 178.165 112.871C179.385 113.044 198.907 117.044 200.999 113.219C203.091 109.393 200.999 92.8727 200.999 92.8727C200.999 92.8727 198.036 84.6994 192.806 87.1339Z" fill="#0065D0"/>
<path d="M192.806 87.1339C192.806 87.1339 185.66 89.0467 188.972 95.1332C188.972 95.1332 194.375 105.741 192.109 106.437C189.843 107.132 179.385 106.784 179.385 106.784C179.385 106.784 176.945 112.697 178.165 112.871C179.385 113.044 198.907 117.044 200.999 113.219C203.091 109.393 200.999 92.8727 200.999 92.8727C200.999 92.8727 198.036 84.6994 192.806 87.1339Z" fill="black"/>
<path d="M213.026 177.561C213.026 177.561 216.164 185.038 214.421 186.429C212.678 187.82 213.026 190.429 214.246 190.429C215.467 190.429 218.256 187.994 219.824 185.038C220.993 182.836 222.936 178.414 223.85 176.301C223.914 176.153 223.946 175.993 223.944 175.832C223.942 175.671 223.906 175.512 223.838 175.366C223.77 175.22 223.672 175.09 223.55 174.984C223.429 174.878 223.286 174.799 223.131 174.752L218.081 173.213L213.026 177.561Z" fill="#090814"/>
<path d="M179.908 186.603C179.908 186.603 173.284 191.994 169.798 191.82C166.312 191.646 165.789 195.298 169.798 195.82C173.807 196.341 185.834 196.515 186.88 195.82C187.926 195.125 187.577 187.82 186.88 187.647C186.184 187.473 179.908 186.603 179.908 186.603Z" fill="#090814"/>
<path d="M202.394 131.13C202.394 131.13 202.394 136.521 199.605 138.782C199.605 138.782 196.293 155.65 199.256 156.692C202.219 157.735 215.641 166.779 216.861 171.3L219.825 173.56C219.825 173.56 214.421 178.951 213.376 178.951C212.33 178.951 202.045 164.866 192.807 162.258C192.807 162.258 187.054 160.867 187.229 153.389C187.403 145.912 194.201 126.087 194.201 126.087H202.045L202.394 131.13Z" fill="#2F2E41"/>
<path d="M202.394 131.13C202.394 131.13 202.394 136.521 199.605 138.782C199.605 138.782 196.293 155.65 199.256 156.692C202.219 157.735 215.641 166.779 216.861 171.3L219.825 173.56C219.825 173.56 214.421 178.951 213.376 178.951C212.33 178.951 202.045 164.866 192.807 162.258C192.807 162.258 187.054 160.867 187.229 153.389C187.403 145.912 194.201 126.087 194.201 126.087H202.045L202.394 131.13Z" fill="black"/>
<path d="M184.265 127.478C184.265 127.478 179.036 143.824 179.908 150.259C179.908 150.259 177.816 156.345 179.385 162.953C180.954 169.561 179.21 186.603 178.862 186.951C178.513 187.299 182.697 190.95 187.229 187.994C187.229 187.994 187.403 183.821 188.275 182.951C189.146 182.081 189.146 163.822 188.275 161.214C187.403 158.605 197.687 139.65 197.687 139.65C197.687 139.65 203.265 134.607 201.173 131.999C199.082 129.391 201.348 124.174 201.348 124.174L185.486 125.217L184.265 127.478Z" fill="#2F2E41"/>
<path d="M181.825 87.6559C185.676 87.6559 188.797 84.5416 188.797 80.7C188.797 76.8584 185.676 73.7442 181.825 73.7442C177.974 73.7442 174.853 76.8584 174.853 80.7C174.853 84.5416 177.974 87.6559 181.825 87.6559Z" fill="#ED9DA0"/>
<path d="M194.375 84.0038L193.504 82.7866C193.504 82.7866 187.498 88.1281 187.276 89.5439C187.127 90.3384 187.297 91.1598 187.752 91.8294L191.237 90.2643L194.375 84.0038Z" fill="#090814"/>
<path d="M183.917 127.131C183.917 127.131 182.522 131.304 183.568 131.13C184.614 130.956 184.614 128.695 185.834 128.695C187.054 128.695 187.752 126.783 187.752 126.783L183.917 127.131Z" fill="#090814"/>
<path d="M192.806 127.478C192.806 127.478 196.815 136.173 201.871 135.304L202.858 134.882C203.27 134.706 203.607 134.39 203.808 133.99C204.009 133.59 204.062 133.132 203.958 132.697C203.476 130.695 202.591 127.479 201.871 127.479L192.806 127.478Z" fill="#090814"/>
<path d="M174.868 81.1365C174.868 81.1365 175.55 78.961 177.816 79.8305C180.082 80.7 182 82.6128 182.522 81.2217C183.045 79.8305 184.383 78.5499 185.283 79.6252C186.183 80.7004 190.279 82.6996 190.105 81.6563C189.931 80.6131 192.284 74.4396 187.751 72.1789C183.219 69.9182 180.779 68.1793 178.513 69.9182C176.247 71.657 170.669 74.9618 171.54 77.048C172.412 79.1341 172.063 80.1782 173.458 80.6998C174.852 81.2215 174.868 81.1365 174.868 81.1365Z" fill="#090814"/>
<path d="M195.247 85.0473C195.247 85.0473 195.073 83.4822 193.504 83.8301C191.935 84.178 187.752 91.1338 187.752 91.1338C187.069 93.3547 186.544 95.621 186.183 97.9157C185.486 102.089 184.091 117.392 182.697 120.001C181.302 122.609 183.917 128.696 183.917 128.696C183.917 128.696 185.485 126.957 190.54 128.001C195.595 129.045 202.219 130.087 202.741 129.566C203.264 129.044 202.219 127.653 203.613 125.914C205.008 124.175 206.925 91.3084 199.953 87.6565C199.953 87.6557 196.641 85.0473 195.247 85.0473Z" fill="#0065D0"/>
<path d="M193.504 90.2641C193.504 90.2641 186.357 92.1769 189.669 98.2634C189.669 98.2634 195.073 108.871 192.807 109.567C190.541 110.262 180.082 109.914 180.082 109.914C180.082 109.914 178.949 113.653 180.169 113.826C181.389 113.999 199.605 120.173 201.697 116.348C203.788 112.523 201.697 96.0021 201.697 96.0021C201.697 96.0021 198.733 87.8296 193.504 90.2641Z" fill="black"/>
<path d="M163.006 109.1L174.591 115.449C174.658 115.493 174.734 115.523 174.814 115.535C174.894 115.547 174.975 115.541 175.052 115.518C175.13 115.496 175.201 115.456 175.262 115.403C175.322 115.35 175.37 115.284 175.402 115.21L178.24 109.293C178.294 109.124 178.286 108.942 178.216 108.779C178.146 108.616 178.02 108.484 177.861 108.406L168.242 103.458C168.123 103.387 167.983 103.362 167.847 103.388C167.711 103.414 167.589 103.489 167.506 103.599L162.701 108.115C162.654 108.199 162.624 108.292 162.614 108.387C162.604 108.483 162.613 108.58 162.641 108.672C162.67 108.765 162.717 108.85 162.779 108.924C162.842 108.997 162.919 109.057 163.006 109.1Z" fill="#090814"/>
<path d="M163.779 108.225L174.64 114.419L177.53 109.222L168.213 104.167L163.779 108.225Z" fill="#0065D0"/>
<path d="M180.281 114.379C180.281 114.379 169.108 115.16 170.653 113.085C172.199 111.01 179.602 109.445 180.885 110.017C182.168 110.59 180.281 114.379 180.281 114.379Z" fill="#ED9DA0"/>
<path d="M193.504 89.2206C193.504 89.2206 186.357 91.1334 189.669 97.2199C189.669 97.2199 195.072 107.828 192.806 108.523C190.541 109.219 180.082 108.871 180.082 108.871C180.082 108.871 177.642 114.784 178.862 114.957C180.082 115.131 199.605 119.131 201.696 115.305C203.788 111.48 201.696 94.9594 201.696 94.9594C201.696 94.9594 198.733 86.7862 193.504 89.2206Z" fill="#0065D0"/>
<path d="M137.261 196.62C137.261 196.808 137.343 196.961 137.445 196.961H249.021C249.123 196.961 249.207 196.808 249.207 196.62C249.207 196.431 249.123 196.278 249.021 196.278H137.446C137.344 196.278 137.261 196.43 137.26 196.617L137.261 196.62Z" fill="#E6E6E6"/>
<path d="M134.846 57.701L145.323 63.4115L155.675 57.701V69.1962H134.846V57.701Z" fill="#F2F2F2"/>
<path d="M154.996 57.5314L146.453 52.6268C146.094 52.4205 145.686 52.3118 145.272 52.3116C144.857 52.3114 144.449 52.4197 144.09 52.6256L135.526 57.5303C135.359 57.5301 135.2 57.5958 135.082 57.7128C134.964 57.8299 134.898 57.9887 134.898 58.1546V68.5852C134.898 68.751 134.964 68.9098 135.082 69.0269C135.2 69.1439 135.359 69.2096 135.526 69.2095H154.996C155.162 69.2095 155.321 69.1438 155.439 69.0268C155.557 68.9098 155.623 68.751 155.624 68.5852V58.1559C155.623 57.9901 155.557 57.8313 155.439 57.7142C155.322 57.5972 155.162 57.5313 154.996 57.5314ZM155.55 68.5863C155.549 68.7326 155.49 68.8726 155.387 68.9759C155.283 69.0791 155.142 69.1371 154.996 69.1372H135.526C135.379 69.1372 135.238 69.0792 135.135 68.976C135.031 68.8727 134.972 68.7326 134.972 68.5863V58.1559C134.972 58.0097 135.031 57.8695 135.135 57.7663C135.238 57.663 135.379 57.6051 135.526 57.6051L144.09 52.7005C144.449 52.4945 144.857 52.3863 145.272 52.3865C145.686 52.3867 146.094 52.4954 146.453 52.7017L154.996 57.6063C155.142 57.6062 155.283 57.6642 155.387 57.7675C155.491 57.8707 155.549 58.0108 155.55 58.1571V68.5863Z" fill="#3F3D56"/>
<path d="M145.271 63.4726C145.207 63.4729 145.143 63.4622 145.082 63.441L145.071 63.4371L145.069 63.4122L145.048 63.422L145.041 63.4252L145.033 63.4218C145.018 63.415 145.002 63.4073 144.987 63.3989L138.185 59.5864V51.8004C138.186 51.6195 138.258 51.4462 138.386 51.3184C138.514 51.1905 138.688 51.1186 138.869 51.1185H151.652C151.833 51.1187 152.007 51.1906 152.135 51.3184C152.263 51.4463 152.335 51.6196 152.336 51.8004V59.596L152.326 59.6013L145.556 63.3989C145.469 63.4474 145.371 63.4728 145.271 63.4726Z" fill="#0065D0"/>
<path d="M145.272 63.4907C145.205 63.4909 145.139 63.4798 145.077 63.4579L145.054 63.45V63.4395L145.042 63.4448L145.027 63.4383C145.011 63.4311 144.995 63.4232 144.979 63.4144L138.167 59.5968V51.8004C138.167 51.6147 138.241 51.4367 138.373 51.3054C138.505 51.1741 138.683 51.1002 138.869 51.1H151.652C151.838 51.1002 152.017 51.1741 152.148 51.3054C152.28 51.4367 152.354 51.6147 152.354 51.8004V59.6067L145.565 63.415C145.475 63.4649 145.374 63.4909 145.272 63.4907ZM145.123 63.3958C145.259 63.4347 145.405 63.4185 145.529 63.3507L152.28 59.5634V51.7994C152.28 51.6332 152.214 51.4739 152.096 51.3564C151.978 51.2389 151.819 51.1728 151.652 51.1727H138.869C138.703 51.1728 138.543 51.2389 138.425 51.3564C138.307 51.4739 138.241 51.6332 138.241 51.7994V59.5527L145.014 63.3517C145.023 63.3566 145.031 63.3612 145.04 63.3654C145.049 63.3612 145.058 63.3566 145.067 63.3517L145.116 63.3237L145.123 63.3958Z" fill="#3F3D56"/>
<path d="M155.46 57.79L152.779 59.2937L152.317 59.5519L145.547 63.3507C145.463 63.3975 145.368 63.422 145.272 63.4218C145.209 63.422 145.148 63.4116 145.089 63.3912C145.072 63.386 145.056 63.3798 145.041 63.3727C145.026 63.3661 145.011 63.3588 144.996 63.3507L138.666 59.8017L138.204 59.5435L135.067 57.7846C135.058 57.7797 135.052 57.7717 135.049 57.7623C135.046 57.7528 135.048 57.7428 135.052 57.7342C135.057 57.7257 135.065 57.7196 135.075 57.7169C135.084 57.7143 135.094 57.7155 135.103 57.7203L138.204 59.4589L138.666 59.7171L145.033 63.2864C145.054 63.2982 145.076 63.3084 145.098 63.3169C145.108 63.3205 145.118 63.3239 145.128 63.3269C145.191 63.3464 145.258 63.3529 145.324 63.3461C145.389 63.3392 145.453 63.3192 145.511 63.2871L152.318 59.4695L152.78 59.2113L155.425 57.7278C155.429 57.7255 155.433 57.7239 155.438 57.7233C155.443 57.7228 155.448 57.7231 155.453 57.7244C155.457 57.7257 155.462 57.7279 155.465 57.7309C155.469 57.7339 155.472 57.7376 155.475 57.7418C155.477 57.746 155.479 57.7507 155.479 57.7555C155.48 57.7603 155.479 57.7651 155.478 57.7698C155.477 57.7744 155.475 57.7788 155.472 57.7826C155.469 57.7864 155.465 57.7896 155.461 57.792L155.46 57.79Z" fill="#3F3D56"/>
<path d="M140.959 53.5327H139.924C139.846 53.5327 139.771 53.5016 139.715 53.4463C139.66 53.391 139.629 53.316 139.629 53.2378C139.629 53.1596 139.66 53.0846 139.715 53.0293C139.771 52.974 139.846 52.9429 139.924 52.9429H140.959C141.038 52.9429 141.113 52.974 141.168 53.0293C141.224 53.0846 141.255 53.1596 141.255 53.2378C141.255 53.316 141.224 53.391 141.168 53.4463C141.113 53.5016 141.038 53.5327 140.959 53.5327Z" fill="#090814"/>
<path d="M142.179 54.5279H139.925C139.846 54.5279 139.771 54.4968 139.716 54.4415C139.66 54.3862 139.629 54.3112 139.629 54.233C139.629 54.1548 139.66 54.0798 139.716 54.0245C139.771 53.9692 139.846 53.9381 139.925 53.9381H142.179C142.257 53.9381 142.332 53.9692 142.388 54.0245C142.443 54.0798 142.474 54.1548 142.474 54.233C142.474 54.3112 142.443 54.3862 142.388 54.4415C142.332 54.4968 142.257 54.5279 142.179 54.5279Z" fill="#E6E6E6"/>
<path d="M148.476 57.1627H142.083C142.005 57.1627 141.93 57.1316 141.874 57.0763C141.819 57.021 141.788 56.946 141.788 56.8678C141.788 56.7896 141.819 56.7146 141.874 56.6593C141.93 56.604 142.005 56.573 142.083 56.573H148.476C148.554 56.573 148.629 56.604 148.685 56.6593C148.74 56.7146 148.771 56.7896 148.771 56.8678C148.771 56.946 148.74 57.021 148.685 57.0763C148.629 57.1316 148.554 57.1627 148.476 57.1627Z" fill="#090814"/>
<path d="M149.066 58.3015H141.455C141.377 58.3015 141.302 58.2704 141.246 58.2151C141.191 58.1598 141.16 58.0848 141.16 58.0066C141.16 57.9284 141.191 57.8534 141.246 57.7981C141.302 57.7428 141.377 57.7117 141.455 57.7117H149.066C149.144 57.7117 149.219 57.7428 149.275 57.7981C149.33 57.8534 149.361 57.9284 149.361 58.0066C149.361 58.0848 149.33 58.1598 149.275 58.2151C149.219 58.2704 149.144 58.3015 149.066 58.3015Z" fill="#E6E6E6"/>
<path d="M149.066 59.4033H141.455C141.377 59.4033 141.302 59.3723 141.246 59.317C141.191 59.2617 141.16 59.1867 141.16 59.1085C141.16 59.0303 141.191 58.9553 141.246 58.9C141.302 58.8447 141.377 58.8136 141.455 58.8136H149.066C149.144 58.8136 149.219 58.8447 149.275 58.9C149.33 58.9553 149.361 59.0303 149.361 59.1085C149.361 59.1867 149.33 59.2617 149.275 59.317C149.219 59.3723 149.144 59.4033 149.066 59.4033Z" fill="#E6E6E6"/>
<path d="M113.639 80.6391C113.553 80.6392 113.471 80.6734 113.41 80.734C113.349 80.7947 113.315 80.8769 113.315 80.9627V101.688C113.315 101.774 113.349 101.856 113.41 101.917C113.471 101.978 113.553 102.012 113.639 102.012H134.413C134.5 102.012 134.582 101.978 134.643 101.917C134.704 101.856 134.738 101.774 134.738 101.688V80.9627C134.738 80.8769 134.704 80.7946 134.643 80.734C134.582 80.6733 134.499 80.6392 134.413 80.6391H113.639ZM113.639 80.531H134.413C134.528 80.531 134.638 80.5765 134.719 80.6575C134.801 80.7384 134.846 80.8482 134.846 80.9627V101.688C134.846 101.802 134.801 101.912 134.719 101.993C134.638 102.074 134.528 102.12 134.413 102.12H113.639C113.524 102.12 113.414 102.074 113.333 101.993C113.252 101.912 113.207 101.802 113.207 101.688V80.9627C113.207 80.8482 113.252 80.7384 113.333 80.6575C113.414 80.5765 113.524 80.531 113.639 80.531Z" fill="#707070"/>
<path d="M124.037 83.2657V85.3348C125.268 85.3349 126.47 85.6991 127.493 86.3811C128.517 87.0632 129.314 88.0327 129.785 89.1669C130.256 90.3011 130.379 91.549 130.139 92.7531C129.898 93.9571 129.306 95.063 128.436 95.931L129.902 97.3941C131.062 96.2366 131.852 94.762 132.173 93.1566C132.493 91.5512 132.328 89.8872 131.7 88.3749C131.073 86.8627 130.009 85.5702 128.645 84.6608C127.281 83.7514 125.678 83.2658 124.037 83.2657Z" fill="#E6E6E6"/>
<path d="M129.902 97.3941L128.436 95.931C127.372 96.9925 125.96 97.6333 124.459 97.7349C122.958 97.8364 121.471 97.3917 120.273 96.4832L119.018 98.1314C120.615 99.3423 122.598 99.9349 124.599 99.7993C126.6 99.6638 128.484 98.8093 129.902 97.3941Z" fill="#090814"/>
<path d="M117.814 91.5419C117.814 89.8957 118.47 88.317 119.637 87.153C120.803 85.9889 122.386 85.3349 124.036 85.3348V83.2657C122.299 83.2656 120.606 83.8093 119.196 84.8201C117.785 85.8309 116.728 87.258 116.174 88.9C115.619 90.542 115.595 92.3162 116.106 93.9724C116.616 95.6287 117.635 97.0832 119.018 98.1314L120.273 96.4832C119.509 95.9049 118.888 95.158 118.462 94.3006C118.035 93.4432 117.814 92.499 117.814 91.5419Z" fill="#0065D0"/>
<path d="M185.368 38.0247H173.183C172.743 38.0247 172.387 38.3803 172.387 38.8189V56.3045C172.387 56.7432 172.743 57.0988 173.183 57.0988H185.368C185.807 57.0988 186.164 56.7432 186.164 56.3045V38.8189C186.164 38.3803 185.807 38.0247 185.368 38.0247Z" fill="#F2F2F2"/>
<path d="M172.74 38.0493C172.67 38.0493 172.603 38.0772 172.553 38.1269C172.503 38.1765 172.475 38.2438 172.475 38.314V56.7457C172.475 56.8158 172.503 56.883 172.553 56.9326C172.603 56.9822 172.67 57.0101 172.74 57.0102H185.735C185.806 57.0103 185.873 56.9824 185.923 56.9328C185.973 56.8832 186.001 56.8159 186.001 56.7457V38.314C186.001 38.2792 185.994 38.2448 185.981 38.2126C185.967 38.1805 185.948 38.1513 185.923 38.1267C185.898 38.1022 185.869 38.0827 185.837 38.0694C185.805 38.0561 185.77 38.0493 185.735 38.0493H172.74ZM172.74 37.9611H185.735C185.829 37.9611 185.919 37.9983 185.985 38.0645C186.052 38.1306 186.089 38.2204 186.089 38.314V56.7457C186.089 56.8393 186.052 56.929 185.985 56.9952C185.919 57.0614 185.829 57.0986 185.735 57.0986H172.74C172.647 57.0986 172.557 57.0614 172.49 56.9952C172.424 56.929 172.387 56.8393 172.387 56.7457V38.314C172.387 38.2204 172.424 38.1306 172.49 38.0645C172.557 37.9983 172.647 37.9611 172.74 37.9611Z" fill="#707070"/>
<path d="M182.955 45.7105H175.529C175.33 45.7103 175.139 45.6312 174.998 45.4907C174.857 45.3501 174.778 45.1596 174.778 44.9609V41.4333C174.778 41.2346 174.857 41.044 174.998 40.9035C175.139 40.7629 175.33 40.6839 175.529 40.6837H182.955C183.154 40.684 183.345 40.763 183.486 40.9035C183.627 41.0441 183.706 41.2346 183.706 41.4333V44.9611C183.706 45.1598 183.627 45.3502 183.486 45.4907C183.345 45.6312 183.154 45.7102 182.955 45.7105Z" fill="#0065D0"/>
<path d="M182.425 48.57H176.06C175.669 48.57 175.353 48.3544 175.353 48.0883C175.353 47.8222 175.669 47.6066 176.06 47.6066H182.425C182.815 47.6066 183.132 47.8222 183.132 48.0883C183.132 48.3544 182.815 48.57 182.425 48.57Z" fill="#CCCCCC"/>
<path d="M182.425 51.2158H176.06C175.669 51.2158 175.353 51.0001 175.353 50.734C175.353 50.468 175.669 50.2523 176.06 50.2523H182.425C182.815 50.2523 183.132 50.468 183.132 50.734C183.132 51.0001 182.815 51.2158 182.425 51.2158Z" fill="#CCCCCC"/>
<path d="M182.425 53.8615H176.06C175.669 53.8615 175.353 53.6459 175.353 53.3798C175.353 53.1137 175.669 52.898 176.06 52.898H182.425C182.815 52.898 183.132 53.1137 183.132 53.3798C183.132 53.6459 182.815 53.8615 182.425 53.8615Z" fill="#CCCCCC"/>
</svg>
